<svg width="41" height="28" viewBox="0 0 41 28" fill="none" xmlns="http://www.w3.org/2000/svg">
<path fill-rule="evenodd" clip-rule="evenodd" d="M7.73937 11.0999C7.73937 5.09689 12.6058 0.230469 18.6088 0.230469C23.3706 0.230469 27.4139 3.29146 28.8849 7.54991C29.3476 7.4876 29.8362 7.45433 30.3395 7.45433C35.9499 7.45433 40.498 12.0025 40.498 17.6129C40.498 23.2233 35.9499 27.7714 30.3395 27.7714C25.9881 27.7714 22.5926 27.7686 19.2009 27.7659L19.1865 27.7658C15.7996 27.7631 12.4151 27.7603 8.08393 27.7603C3.89436 27.7603 0.498047 24.364 0.498047 20.1744H3.38367C3.38367 22.7703 5.48804 24.8747 8.08393 24.8747C12.4222 24.8747 15.811 24.8775 19.2025 24.8802H19.2032C22.5949 24.883 25.9894 24.8858 30.3395 24.8858C34.3562 24.8858 37.6124 21.6296 37.6124 17.6129C37.6124 13.5961 34.3562 10.3399 30.3395 10.3399C29.686 10.3399 29.0941 10.4149 28.6121 10.5319C27.7624 10.7382 26.8159 10.3084 26.4818 9.40444L26.2502 8.77783L26.2386 8.7403C25.2321 5.48133 22.1948 3.11609 18.6088 3.11609C14.1995 3.11609 10.625 6.69058 10.625 11.0999H7.73937Z" fill="url(#paint0_linear_1251_21991)"></path>
<path fill-rule="evenodd" clip-rule="evenodd" d="M7.84116 12.5959C7.77402 12.1076 7.73937 11.6094 7.73937 11.1035H10.625C10.625 12.0424 10.7865 12.9405 11.0819 13.7734L12.0078 16.3834L9.33826 15.6466C8.94058 15.5368 8.5203 15.4777 8.08392 15.4777C5.48804 15.4777 3.38367 17.5821 3.38367 20.178H0.498047C0.498047 16.0697 3.76394 12.7241 7.84116 12.5959Z" fill="url(#paint1_linear_1251_21991)"></path>
<path fill-rule="evenodd" clip-rule="evenodd" d="M18.6059 3.11609C14.2003 3.11609 10.6346 6.67826 10.6346 11.0653C10.6346 15.4523 14.2003 19.0145 18.6059 19.0145V21.9001C12.613 21.9001 7.74902 17.0524 7.74902 11.0653C7.74902 5.07818 12.613 0.230469 18.6059 0.230469C22.6247 0.230469 26.133 2.41048 28.0088 5.64555L25.5124 7.093C24.1327 4.71353 21.5563 3.11609 18.6059 3.11609Z" fill="url(#paint2_angular_1251_21991)"></path>
<defs>
<linearGradient id="paint0_linear_1251_21991" x1="6.99498" y1="8.43903" x2="39.0552" y2="27.4333" gradientUnits="userSpaceOnUse">
<stop stop-color="#FF6B00"></stop>
<stop offset="1" stop-color="#F819C7"></stop>
</linearGradient>
<linearGradient id="paint1_linear_1251_21991" x1="2.6302" y1="19.8829" x2="7.49248" y2="16.8249" gradientUnits="userSpaceOnUse">
<stop stop-color="#FF6B00"></stop>
<stop offset="1" stop-color="#FF6B00" stop-opacity="0"></stop>
</linearGradient>
<radialGradient id="paint2_angular_1251_21991" cx="0" cy="0" r="1" gradientUnits="userSpaceOnUse" gradientTransform="translate(18.7272 10.6157) rotate(169.463) scale(6.38346 6.55039)">
<stop offset="0.139524" stop-color="#FF6B00"></stop>
<stop offset="0.451653" stop-color="#FC4857"></stop>
<stop offset="0.788185" stop-color="#FF6B00" stop-opacity="0"></stop>
<stop offset="0.933019" stop-color="#FF6B00"></stop>
</radialGradient>
</defs>
</svg>