<svg width="436" height="436" viewBox="0 0 436 436" fill="none" xmlns="http://www.w3.org/2000/svg">
<g clip-path="url(#clip0_14_39)">
<mask id="mask0_14_39" style="mask-type:alpha" maskUnits="userSpaceOnUse" x="-179" y="118" width="400" height="400">
<path d="M177.928 195.257C245.776 282.099 230.378 407.5 143.537 475.348C56.6952 543.196 -68.7057 527.799 -136.554 440.957C-204.402 354.116 -189.005 228.715 -102.163 160.867C-15.3214 93.0186 110.079 108.416 177.928 195.257Z" fill="#214E54"/>
<path d="M178.061 195.153C245.909 281.995 230.511 407.396 143.67 475.244C56.8281 543.092 -68.5727 527.695 -136.421 440.853C-204.269 354.012 -188.872 228.611 -102.03 160.763C-15.1884 92.9146 110.212 108.312 178.061 195.153Z" fill="#214E54"/>
</mask>
<g mask="url(#mask0_14_39)">
<circle cx="201.533" cy="132.727" r="199.541" transform="rotate(-41 201.533 132.727)" fill="#214E54"/>
</g>
<mask id="mask1_14_39" style="mask-type:alpha" maskUnits="userSpaceOnUse" x="214" y="118" width="400" height="400">
<path d="M256.542 195.257C188.694 282.099 204.091 407.5 290.933 475.348C377.775 543.196 503.176 527.799 571.024 440.957C638.872 354.116 623.474 228.715 536.633 160.867C449.791 93.0185 324.39 108.416 256.542 195.257Z" fill="#214E54"/>
</mask>
<g mask="url(#mask1_14_39)">
<circle cx="199.541" cy="199.541" r="199.541" transform="matrix(-0.75471 -0.656059 -0.656059 0.75471 514.444 113.042)" fill="#214E54"/>
</g>
<mask id="mask2_14_39" style="mask-type:alpha" maskUnits="userSpaceOnUse" x="-179" y="118" width="400" height="400">
<path d="M177.928 195.257C245.776 282.099 230.378 407.5 143.537 475.348C56.6952 543.196 -68.7057 527.799 -136.554 440.957C-204.402 354.116 -189.005 228.715 -102.163 160.867C-15.3214 93.0186 110.079 108.416 177.928 195.257Z" fill="#214E54"/>
<path d="M178.061 195.153C245.909 281.995 230.511 407.396 143.67 475.244C56.8281 543.092 -68.5727 527.695 -136.421 440.853C-204.269 354.012 -188.872 228.611 -102.03 160.763C-15.1884 92.9146 110.212 108.312 178.061 195.153Z" fill="#214E54"/>
</mask>
<g mask="url(#mask2_14_39)">
</g>
<mask id="mask3_14_39" style="mask-type:alpha" maskUnits="userSpaceOnUse" x="214" y="118" width="400" height="400">
<path d="M256.542 195.257C188.694 282.099 204.091 407.5 290.933 475.348C377.775 543.196 503.176 527.799 571.024 440.957C638.872 354.116 623.474 228.715 536.633 160.867C449.791 93.0185 324.39 108.416 256.542 195.257Z" fill="#214E54"/>
</mask>
<g mask="url(#mask3_14_39)">
<path d="M82.3414 1.81563C10.0412 84.9874 18.8545 211.022 102.026 283.322C185.198 355.623 311.233 346.809 383.533 263.638C455.833 180.466 447.02 54.4309 363.848 -17.8692C280.676 -90.1694 154.642 -81.3562 82.3414 1.81563Z" fill="#214E54"/>
</g>
<mask id="mask4_14_39" style="mask-type:alpha" maskUnits="userSpaceOnUse" x="-46" y="-194" width="527" height="528">
<path d="M480.672 69.8395C480.672 215.308 362.796 333.234 217.389 333.234C71.9814 333.234 -45.8944 215.308 -45.8944 69.8395C-45.8944 -75.6292 71.9814 -193.555 217.389 -193.555C362.796 -193.555 480.672 -75.6292 480.672 69.8395Z" fill="#214E54"/>
<path d="M480.895 69.8394C480.895 215.308 363.019 333.234 217.611 333.234C72.2042 333.234 -45.6717 215.308 -45.6717 69.8394C-45.6717 -75.6294 72.2042 -193.555 217.611 -193.555C363.019 -193.555 480.895 -75.6294 480.895 69.8394Z" fill="#214E54"/>
</mask>
<g mask="url(#mask4_14_39)">
<circle cx="217.5" cy="556.72" r="263.394" fill="#214E54"/>
</g>
</g>
<defs>
<clipPath id="clip0_14_39">
<rect width="436" height="436" fill="white"/>
</clipPath>
</defs>
</svg>
