<svg width="256" height="256" viewBox="0 0 256 256" fill="none" xmlns="http://www.w3.org/2000/svg">
  <style>
    @media (prefers-color-scheme: dark) {
    .bg { fill: #1E252B }
    .logo { fill: #FFFCF7 }
    }
  </style>
  <rect class="bg" width="256" height="256" rx="128" fill="#FEF4E5" />
  <path class="logo" fill-rule="evenodd" clip-rule="evenodd" fill="#1E252B"
    d="M139.927 44.3484C132.538 40.1173 123.462 40.1173 116.073 44.3484L61.0732 75.8452C53.6063 80.1212 49 88.0673 49 96.6719V159.328C49 167.933 53.6063 175.879 61.0732 180.155L116.073 211.652C123.462 215.883 132.538 215.883 139.927 211.652L194.927 180.155C202.394 175.879 207 167.933 207 159.328V96.6719C207 88.0673 202.394 80.1212 194.927 75.8452L139.927 44.3484ZM135.569 63.1021C130.675 60.3282 124.683 60.3282 119.789 63.1021L74.5949 88.7181C69.5824 91.5592 66.4845 96.876 66.4845 102.638V146.685C66.4845 155.521 73.6479 162.685 82.4845 162.685H127.679H172.873C181.71 162.685 188.873 155.521 188.873 146.685V102.638C188.873 96.876 185.776 91.5592 180.763 88.7181L135.569 63.1021Z" />
</svg>
